<?xml version="1.0" encoding="UTF-8" standalone="no"?>
<!DOCTYPE svg PUBLIC "-//W3C//DTD SVG 1.1//EN"
 "http://www.w3.org/Graphics/SVG/1.1/DTD/svg11.dtd">
<!-- Generated by graphviz version 2.40.1 (20161225.0304)
 -->
<!-- Pages: 1 -->
<svg width="512pt" height="198pt"
 viewBox="0.00 0.00 512.00 198.00" xmlns="http://www.w3.org/2000/svg" xmlns:xlink="http://www.w3.org/1999/xlink">
<g id="graph0" class="graph" transform="scale(1 1) rotate(0) translate(4 194)">
<polygon fill="#ffffff" stroke="transparent" points="-4,4 -4,-194 508,-194 508,4 -4,4"/>
<!-- 1 -->
<g id="node1" class="node">
<title>1</title>
<ellipse fill="none" stroke="#000000" cx="27" cy="-118" rx="27" ry="18"/>
<text text-anchor="middle" x="27" y="-113.8" font-family="Times,serif" font-size="14.00" fill="#000000">1</text>
</g>
<!-- 2 -->
<g id="node2" class="node">
<title>2</title>
<ellipse fill="none" stroke="#000000" cx="117" cy="-118" rx="27" ry="18"/>
<text text-anchor="middle" x="117" y="-113.8" font-family="Times,serif" font-size="14.00" fill="#000000">2</text>
</g>
<!-- 1&#45;&gt;2 -->
<g id="edge1" class="edge">
<title>1&#45;&gt;2</title>
<path fill="none" stroke="#000000" d="M54.003,-118C62.0277,-118 70.9665,-118 79.5309,-118"/>
<polygon fill="#000000" stroke="#000000" points="79.7051,-121.5001 89.705,-118 79.705,-114.5001 79.7051,-121.5001"/>
</g>
<!-- 3 -->
<g id="node9" class="node">
<title>3</title>
<ellipse fill="none" stroke="#000000" cx="207" cy="-172" rx="27" ry="18"/>
<text text-anchor="middle" x="207" y="-167.8" font-family="Times,serif" font-size="14.00" fill="#000000">3</text>
</g>
<!-- 1&#45;&gt;3 -->
<g id="edge8" class="edge">
<title>1&#45;&gt;3</title>
<path fill="none" stroke="#000000" d="M49.0792,-128.6092C61.0004,-134.043 76.0874,-140.4536 90,-145 116.5817,-153.6865 147.4324,-160.6833 170.7788,-165.376"/>
<polygon fill="#000000" stroke="#000000" points="170.1254,-168.8144 180.6122,-167.3059 171.4735,-161.9455 170.1254,-168.8144"/>
</g>
<!-- 10 -->
<g id="node10" class="node">
<title>10</title>
<ellipse fill="none" stroke="#000000" cx="117" cy="-64" rx="27" ry="18"/>
<text text-anchor="middle" x="117" y="-59.8" font-family="Times,serif" font-size="14.00" fill="#000000">10</text>
</g>
<!-- 1&#45;&gt;10 -->
<g id="edge11" class="edge">
<title>1&#45;&gt;10</title>
<path fill="none" stroke="#000000" d="M47.4224,-105.7466C59.3897,-98.5662 74.7024,-89.3785 87.9143,-81.4514"/>
<polygon fill="#000000" stroke="#000000" points="89.8842,-84.3512 96.6584,-76.2049 86.2827,-78.3487 89.8842,-84.3512"/>
</g>
<!-- 4 -->
<g id="node3" class="node">
<title>4</title>
<ellipse fill="none" stroke="#000000" cx="207" cy="-118" rx="27" ry="18"/>
<text text-anchor="middle" x="207" y="-113.8" font-family="Times,serif" font-size="14.00" fill="#000000">4</text>
</g>
<!-- 2&#45;&gt;4 -->
<g id="edge2" class="edge">
<title>2&#45;&gt;4</title>
<path fill="none" stroke="#000000" d="M144.003,-118C152.0277,-118 160.9665,-118 169.5309,-118"/>
<polygon fill="#000000" stroke="#000000" points="169.7051,-121.5001 179.705,-118 169.705,-114.5001 169.7051,-121.5001"/>
</g>
<!-- 5 -->
<g id="node4" class="node">
<title>5</title>
<ellipse fill="none" stroke="#000000" cx="297" cy="-126" rx="27" ry="18"/>
<text text-anchor="middle" x="297" y="-121.8" font-family="Times,serif" font-size="14.00" fill="#000000">5</text>
</g>
<!-- 4&#45;&gt;5 -->
<g id="edge3" class="edge">
<title>4&#45;&gt;5</title>
<path fill="none" stroke="#000000" d="M234.003,-120.4003C242.1903,-121.128 251.3292,-121.9404 260.051,-122.7156"/>
<polygon fill="#000000" stroke="#000000" points="259.7454,-126.2022 270.0161,-123.6014 260.3653,-119.2297 259.7454,-126.2022"/>
</g>
<!-- 6 -->
<g id="node5" class="node">
<title>6</title>
<ellipse fill="none" stroke="#000000" cx="297" cy="-72" rx="27" ry="18"/>
<text text-anchor="middle" x="297" y="-67.8" font-family="Times,serif" font-size="14.00" fill="#000000">6</text>
</g>
<!-- 4&#45;&gt;6 -->
<g id="edge4" class="edge">
<title>4&#45;&gt;6</title>
<path fill="none" stroke="#000000" d="M228.7865,-106.8647C240.0625,-101.1014 254.0163,-93.9694 266.3599,-87.6605"/>
<polygon fill="#000000" stroke="#000000" points="268.1027,-90.7005 275.4141,-83.0328 264.9169,-84.4674 268.1027,-90.7005"/>
</g>
<!-- 8 -->
<g id="node7" class="node">
<title>8</title>
<ellipse fill="none" stroke="#000000" cx="387" cy="-126" rx="27" ry="18"/>
<text text-anchor="middle" x="387" y="-121.8" font-family="Times,serif" font-size="14.00" fill="#000000">8</text>
</g>
<!-- 5&#45;&gt;8 -->
<g id="edge6" class="edge">
<title>5&#45;&gt;8</title>
<path fill="none" stroke="#000000" d="M324.003,-126C332.0277,-126 340.9665,-126 349.5309,-126"/>
<polygon fill="#000000" stroke="#000000" points="349.7051,-129.5001 359.705,-126 349.705,-122.5001 349.7051,-129.5001"/>
</g>
<!-- 7 -->
<g id="node6" class="node">
<title>7</title>
<ellipse fill="none" stroke="#000000" cx="387" cy="-72" rx="27" ry="18"/>
<text text-anchor="middle" x="387" y="-67.8" font-family="Times,serif" font-size="14.00" fill="#000000">7</text>
</g>
<!-- 6&#45;&gt;7 -->
<g id="edge5" class="edge">
<title>6&#45;&gt;7</title>
<path fill="none" stroke="#000000" d="M324.003,-72C332.0277,-72 340.9665,-72 349.5309,-72"/>
<polygon fill="#000000" stroke="#000000" points="349.7051,-75.5001 359.705,-72 349.705,-68.5001 349.7051,-75.5001"/>
</g>
<!-- 9 -->
<g id="node8" class="node">
<title>9</title>
<ellipse fill="none" stroke="#000000" cx="477" cy="-99" rx="27" ry="18"/>
<text text-anchor="middle" x="477" y="-94.8" font-family="Times,serif" font-size="14.00" fill="#000000">9</text>
</g>
<!-- 7&#45;&gt;9 -->
<g id="edge10" class="edge">
<title>7&#45;&gt;9</title>
<path fill="none" stroke="#000000" d="M412.07,-79.521C421.5102,-82.3531 432.4169,-85.6251 442.564,-88.6692"/>
<polygon fill="#000000" stroke="#000000" points="441.7915,-92.0915 452.3755,-91.6126 443.803,-85.3867 441.7915,-92.0915"/>
</g>
<!-- 8&#45;&gt;9 -->
<g id="edge7" class="edge">
<title>8&#45;&gt;9</title>
<path fill="none" stroke="#000000" d="M412.07,-118.479C421.5102,-115.6469 432.4169,-112.3749 442.564,-109.3308"/>
<polygon fill="#000000" stroke="#000000" points="443.803,-112.6133 452.3755,-106.3874 441.7915,-105.9085 443.803,-112.6133"/>
</g>
<!-- 3&#45;&gt;7 -->
<g id="edge9" class="edge">
<title>3&#45;&gt;7</title>
<path fill="none" stroke="#000000" d="M234.2538,-173.521C259.4641,-173.6294 297.0056,-170.3747 324,-153 348.2547,-137.3887 341.713,-121.3066 360,-99 361.2608,-97.462 362.597,-95.9137 363.9734,-94.3786"/>
<polygon fill="#000000" stroke="#000000" points="366.6983,-96.5913 371.0297,-86.9223 361.614,-91.7798 366.6983,-96.5913"/>
</g>
<!-- 11 -->
<g id="node11" class="node">
<title>11</title>
<ellipse fill="none" stroke="#000000" cx="207" cy="-64" rx="27" ry="18"/>
<text text-anchor="middle" x="207" y="-59.8" font-family="Times,serif" font-size="14.00" fill="#000000">11</text>
</g>
<!-- 10&#45;&gt;11 -->
<g id="edge12" class="edge">
<title>10&#45;&gt;11</title>
<path fill="none" stroke="#000000" d="M144.003,-64C152.0277,-64 160.9665,-64 169.5309,-64"/>
<polygon fill="#000000" stroke="#000000" points="169.7051,-67.5001 179.705,-64 169.705,-60.5001 169.7051,-67.5001"/>
</g>
<!-- 11&#45;&gt;6 -->
<g id="edge15" class="edge">
<title>11&#45;&gt;6</title>
<path fill="none" stroke="#000000" d="M234.003,-66.4003C242.1903,-67.128 251.3292,-67.9404 260.051,-68.7156"/>
<polygon fill="#000000" stroke="#000000" points="259.7454,-72.2022 270.0161,-69.6014 260.3653,-65.2297 259.7454,-72.2022"/>
</g>
<!-- 12 -->
<g id="node12" class="node">
<title>12</title>
<ellipse fill="none" stroke="#000000" cx="297" cy="-18" rx="27" ry="18"/>
<text text-anchor="middle" x="297" y="-13.8" font-family="Times,serif" font-size="14.00" fill="#000000">12</text>
</g>
<!-- 11&#45;&gt;12 -->
<g id="edge13" class="edge">
<title>11&#45;&gt;12</title>
<path fill="none" stroke="#000000" d="M228.7865,-52.8647C240.0625,-47.1014 254.0163,-39.9694 266.3599,-33.6605"/>
<polygon fill="#000000" stroke="#000000" points="268.1027,-36.7005 275.4141,-29.0328 264.9169,-30.4674 268.1027,-36.7005"/>
</g>
<!-- 13 -->
<g id="node13" class="node">
<title>13</title>
<ellipse fill="none" stroke="#000000" cx="387" cy="-18" rx="27" ry="18"/>
<text text-anchor="middle" x="387" y="-13.8" font-family="Times,serif" font-size="14.00" fill="#000000">13</text>
</g>
<!-- 12&#45;&gt;13 -->
<g id="edge14" class="edge">
<title>12&#45;&gt;13</title>
<path fill="none" stroke="#000000" d="M324.003,-18C332.0277,-18 340.9665,-18 349.5309,-18"/>
<polygon fill="#000000" stroke="#000000" points="349.7051,-21.5001 359.705,-18 349.705,-14.5001 349.7051,-21.5001"/>
</g>
</g>
</svg>
