<?xml version="1.0" encoding="UTF-8" standalone="no"?>
<!DOCTYPE svg PUBLIC "-//W3C//DTD SVG 1.1//EN"
 "http://www.w3.org/Graphics/SVG/1.1/DTD/svg11.dtd">
<!-- Generated by graphviz version 2.40.1 (20161225.0304)
 -->
<!-- Pages: 1 -->
<svg width="1917pt" height="170pt"
 viewBox="0.00 0.00 1917.00 169.93" xmlns="http://www.w3.org/2000/svg" xmlns:xlink="http://www.w3.org/1999/xlink">
<g id="graph0" class="graph" transform="scale(1 1) rotate(0) translate(4 165.9331)">
<polygon fill="#ffffff" stroke="transparent" points="-4,4 -4,-165.9331 1913,-165.9331 1913,4 -4,4"/>
<!-- l1 -->
<g id="node1" class="node">
<title>l1</title>
<g id="a_node1"><a xlink:href="http://google.com" xlink:title=" ">
<polygon fill="#5dade2" stroke="#000000" points="147,-100.9331 0,-100.9331 0,-64.9331 147,-64.9331 147,-100.9331"/>
<text text-anchor="middle" x="73.5" y="-79.2331" font-family="Times,serif" font-size="14.00" fill="#000000">Hey, who are you?</text>
</a>
</g>
</g>
<!-- a1 -->
<g id="node10" class="node">
<title>a1</title>
<g id="a_node10"><a xlink:title=" ">
<polygon fill="#f1948a" stroke="#000000" points="183,-48.4331 183,-117.4331 395,-117.4331 395,-48.4331 183,-48.4331"/>
<text text-anchor="middle" x="289" y="-102.2331" font-family="Times,serif" font-size="14.00" fill="#000000">I could ask you the same.</text>
<polyline fill="none" stroke="#000000" points="183,-94.4331 395,-94.4331 "/>
<text text-anchor="middle" x="289" y="-79.2331" font-family="Times,serif" font-size="14.00" fill="#000000">My name does not matter.</text>
<polyline fill="none" stroke="#000000" points="183,-71.4331 395,-71.4331 "/>
<text text-anchor="middle" x="289" y="-56.2331" font-family="Times,serif" font-size="14.00" fill="#000000">I know your name is Hugo!</text>
</a>
</g>
</g>
<!-- l1&#45;&gt;a1 -->
<g id="edge1" class="edge">
<title>l1&#45;&gt;a1</title>
<path fill="none" stroke="#000000" d="M147.0601,-82.9331C155.3857,-82.9331 164.0152,-82.9331 172.7193,-82.9331"/>
<polygon fill="#000000" stroke="#000000" points="172.9578,-86.4332 182.9578,-82.9331 172.9577,-79.4332 172.9578,-86.4332"/>
</g>
<!-- l2 -->
<g id="node2" class="node">
<title>l2</title>
<g id="a_node2"><a xlink:title=" ">
<polygon fill="#5dade2" stroke="#000000" points="687,-149.9331 506,-149.9331 506,-113.9331 687,-113.9331 687,-149.9331"/>
<text text-anchor="middle" x="596.5" y="-128.2331" font-family="Times,serif" font-size="14.00" fill="#000000">I am Hugo. And you...?</text>
</a>
</g>
</g>
<!-- a2 -->
<g id="node11" class="node">
<title>a2</title>
<g id="a_node11"><a xlink:title=" ">
<polygon fill="#f1948a" stroke="#000000" points="813,-111.9331 813,-157.9331 1017,-157.9331 1017,-111.9331 813,-111.9331"/>
<text text-anchor="middle" x="915" y="-142.7331" font-family="Times,serif" font-size="14.00" fill="#000000">My name does not matter.</text>
<polyline fill="none" stroke="#000000" points="813,-134.9331 1017,-134.9331 "/>
<text text-anchor="middle" x="915" y="-119.7331" font-family="Times,serif" font-size="14.00" fill="#000000">I am Hugo as well.</text>
</a>
</g>
</g>
<!-- l2&#45;&gt;a2 -->
<g id="edge2" class="edge">
<title>l2&#45;&gt;a2</title>
<path fill="none" stroke="#000000" d="M687.3431,-132.7888C723.2941,-133.1274 764.9879,-133.5201 802.7951,-133.8762"/>
<polygon fill="#000000" stroke="#000000" points="802.7981,-137.3763 812.8307,-133.9708 802.8641,-130.3766 802.7981,-137.3763"/>
</g>
<!-- l3 -->
<g id="node3" class="node">
<title>l3</title>
<g id="a_node3"><a xlink:title=" ">
<polygon fill="#5dade2" stroke="#000000" points="762,-51.9331 431,-51.9331 431,-15.9331 762,-15.9331 762,-51.9331"/>
<text text-anchor="middle" x="596.5" y="-30.2331" font-family="Times,serif" font-size="14.00" fill="#000000">How do you know this? We have never met!</text>
</a>
</g>
</g>
<!-- a3 -->
<g id="node12" class="node">
<title>a3</title>
<g id="a_node12"><a xlink:title=" ">
<polygon fill="#f1948a" stroke="#000000" points="798,-7.9331 798,-53.9331 1032,-53.9331 1032,-7.9331 798,-7.9331"/>
<text text-anchor="middle" x="915" y="-38.7331" font-family="Times,serif" font-size="14.00" fill="#000000">I am not telling you!</text>
<polyline fill="none" stroke="#000000" points="798,-30.9331 1032,-30.9331 "/>
<text text-anchor="middle" x="915" y="-15.7331" font-family="Times,serif" font-size="14.00" fill="#000000">I just know. I am Hugo as well</text>
</a>
</g>
</g>
<!-- l3&#45;&gt;a3 -->
<g id="edge3" class="edge">
<title>l3&#45;&gt;a3</title>
<path fill="none" stroke="#000000" d="M762.2801,-32.3716C770.7694,-32.2916 779.234,-32.2119 787.577,-32.1333"/>
<polygon fill="#000000" stroke="#000000" points="787.7203,-35.6322 797.6869,-32.0381 787.6543,-28.6325 787.7203,-35.6322"/>
</g>
<!-- l4 -->
<g id="node4" class="node">
<title>l4</title>
<g id="a_node4"><a xlink:title=" ">
<polygon fill="#5dade2" stroke="#000000" points="1203.5,-100.9331 1078.5,-100.9331 1078.5,-64.9331 1203.5,-64.9331 1203.5,-100.9331"/>
<text text-anchor="middle" x="1141" y="-79.2331" font-family="Times,serif" font-size="14.00" fill="#000000">Fine, be a jerk.</text>
</a>
</g>
</g>
<!-- l5 -->
<g id="node5" class="node">
<title>l5</title>
<g id="a_node5"><a xlink:title=" ">
<polygon fill="#5dade2" stroke="#000000" points="1214,-41.9331 1068,-41.9331 1068,-5.9331 1214,-5.9331 1214,-41.9331"/>
<text text-anchor="middle" x="1141" y="-20.2331" font-family="Times,serif" font-size="14.00" fill="#000000">Nice to meet you!</text>
</a>
</g>
</g>
<!-- l6 -->
<g id="node6" class="node">
<title>l6</title>
<g id="a_node6"><a xlink:title=" ">
<polygon fill="#5dade2" stroke="#000000" points="1465,-41.9331 1250,-41.9331 1250,-5.9331 1465,-5.9331 1465,-41.9331"/>
<text text-anchor="middle" x="1357.5" y="-20.2331" font-family="Times,serif" font-size="14.00" fill="#000000">What do you want to know?</text>
</a>
</g>
</g>
<!-- l5&#45;&gt;l6 -->
<g id="edge11" class="edge">
<title>l5&#45;&gt;l6</title>
<path fill="none" stroke="#000000" d="M1214.297,-23.9331C1222.4969,-23.9331 1230.9966,-23.9331 1239.5779,-23.9331"/>
<polygon fill="#000000" stroke="#000000" points="1239.6762,-27.4332 1249.6762,-23.9331 1239.6761,-20.4332 1239.6762,-27.4332"/>
</g>
<!-- a4 -->
<g id="node13" class="node">
<title>a4</title>
<g id="a_node13"><a xlink:title=" ">
<polygon fill="#f1948a" stroke="#000000" points="1501,-39.4331 1501,-108.4331 1569,-108.4331 1569,-39.4331 1501,-39.4331"/>
<text text-anchor="middle" x="1535" y="-93.2331" font-family="Times,serif" font-size="14.00" fill="#000000">thing 1</text>
<polyline fill="none" stroke="#000000" points="1501,-85.4331 1569,-85.4331 "/>
<text text-anchor="middle" x="1535" y="-70.2331" font-family="Times,serif" font-size="14.00" fill="#000000">thing 2</text>
<polyline fill="none" stroke="#000000" points="1501,-62.4331 1569,-62.4331 "/>
<text text-anchor="middle" x="1535" y="-47.2331" font-family="Times,serif" font-size="14.00" fill="#000000">thing 3</text>
</a>
</g>
</g>
<!-- l6&#45;&gt;a4 -->
<g id="edge12" class="edge">
<title>l6&#45;&gt;a4</title>
<path fill="none" stroke="#000000" d="M1421.5816,-41.9843C1444.6228,-48.4747 1470.0737,-55.644 1491.0181,-61.5438"/>
<polygon fill="#000000" stroke="#000000" points="1490.3331,-64.987 1500.9075,-64.3296 1492.2311,-58.2493 1490.3331,-64.987"/>
</g>
<!-- l7 -->
<g id="node7" class="node">
<title>l7</title>
<g id="a_node7"><a xlink:title=" ">
<polygon fill="#5dade2" stroke="#000000" points="1673,-161.9331 1605,-161.9331 1605,-125.9331 1673,-125.9331 1673,-161.9331"/>
<text text-anchor="middle" x="1639" y="-140.2331" font-family="Times,serif" font-size="14.00" fill="#000000">thing 1</text>
</a>
</g>
</g>
<!-- a5 -->
<g id="node14" class="node">
<title>a5</title>
<g id="a_node14"><a xlink:title=" ">
<polygon fill="#f1948a" stroke="#000000" points="1709,-44.9331 1709,-80.9331 1909,-80.9331 1909,-44.9331 1709,-44.9331"/>
<text text-anchor="middle" x="1809" y="-59.2331" font-family="Times,serif" font-size="14.00" fill="#000000">Thanks, one more thing...</text>
</a>
</g>
</g>
<!-- l7&#45;&gt;a5 -->
<g id="edge16" class="edge">
<title>l7&#45;&gt;a5</title>
<path fill="none" stroke="#000000" d="M1673.402,-127.5416C1698.8548,-115.4141 1733.8244,-98.7521 1761.8758,-85.3864"/>
<polygon fill="#000000" stroke="#000000" points="1763.5778,-88.4525 1771.0999,-80.9914 1760.5668,-82.1332 1763.5778,-88.4525"/>
</g>
<!-- l8 -->
<g id="node8" class="node">
<title>l8</title>
<g id="a_node8"><a xlink:title=" ">
<polygon fill="#5dade2" stroke="#000000" points="1673,-107.9331 1605,-107.9331 1605,-71.9331 1673,-71.9331 1673,-107.9331"/>
<text text-anchor="middle" x="1639" y="-86.2331" font-family="Times,serif" font-size="14.00" fill="#000000">thing 2</text>
</a>
</g>
</g>
<!-- l8&#45;&gt;a5 -->
<g id="edge17" class="edge">
<title>l8&#45;&gt;a5</title>
<path fill="none" stroke="#000000" d="M1673.402,-84.4693C1681.1682,-83.2358 1689.8204,-81.8616 1698.8918,-80.4209"/>
<polygon fill="#000000" stroke="#000000" points="1699.5504,-83.8602 1708.8776,-78.8349 1698.4524,-76.9469 1699.5504,-83.8602"/>
</g>
<!-- l9 -->
<g id="node9" class="node">
<title>l9</title>
<g id="a_node9"><a xlink:title=" ">
<polygon fill="#5dade2" stroke="#000000" points="1673,-53.9331 1605,-53.9331 1605,-17.9331 1673,-17.9331 1673,-53.9331"/>
<text text-anchor="middle" x="1639" y="-32.2331" font-family="Times,serif" font-size="14.00" fill="#000000">thing 3</text>
</a>
</g>
</g>
<!-- l9&#45;&gt;a5 -->
<g id="edge18" class="edge">
<title>l9&#45;&gt;a5</title>
<path fill="none" stroke="#000000" d="M1673.402,-41.397C1681.1682,-42.6304 1689.8204,-44.0046 1698.8918,-45.4453"/>
<polygon fill="#000000" stroke="#000000" points="1698.4524,-48.9193 1708.8776,-47.0313 1699.5504,-42.006 1698.4524,-48.9193"/>
</g>
<!-- a1&#45;&gt;l2 -->
<g id="edge4" class="edge">
<title>a1:l6&#45;&gt;l2</title>
<path fill="none" stroke="#000000" d="M395,-105.9331C427.8625,-105.9331 463.4936,-109.3768 495.5257,-113.7575"/>
<polygon fill="#000000" stroke="#000000" points="495.3995,-117.2744 505.7912,-115.2096 496.38,-110.3434 495.3995,-117.2744"/>
</g>
<!-- a1&#45;&gt;l3 -->
<g id="edge5" class="edge">
<title>a1:l7&#45;&gt;l3</title>
<path fill="none" stroke="#000000" d="M395,-59.9331C424.8681,-59.9331 457.0233,-57.0884 486.6847,-53.281"/>
<polygon fill="#000000" stroke="#000000" points="487.1906,-56.7446 496.6413,-51.9556 486.2668,-49.8058 487.1906,-56.7446"/>
</g>
<!-- a1&#45;&gt;l4 -->
<g id="edge6" class="edge">
<title>a1:l8&#45;&gt;l4</title>
<path fill="none" stroke="#000000" d="M395,-82.9331C641.7708,-82.9331 934.4583,-82.9331 1068.0125,-82.9331"/>
<polygon fill="#000000" stroke="#000000" points="1068.123,-86.4332 1078.123,-82.9331 1068.123,-79.4332 1068.123,-86.4332"/>
</g>
<!-- a2&#45;&gt;l4 -->
<g id="edge7" class="edge">
<title>a2:l8&#45;&gt;l4</title>
<path fill="none" stroke="#000000" d="M1017,-146.9331C1052.9738,-146.9331 1088.935,-125.4 1112.7947,-107.3142"/>
<polygon fill="#000000" stroke="#000000" points="1115.0043,-110.0293 1120.7096,-101.1018 1110.6823,-104.5228 1115.0043,-110.0293"/>
</g>
<!-- a2&#45;&gt;l5 -->
<g id="edge8" class="edge">
<title>a2:l9&#45;&gt;l5</title>
<path fill="none" stroke="#000000" d="M1017,-122.9331C1054.4232,-122.9331 1038.5892,-79.074 1068,-55.9331 1072.1087,-52.7003 1076.5947,-49.7247 1081.2571,-47.0008"/>
<polygon fill="#000000" stroke="#000000" points="1083.2509,-49.902 1090.3878,-42.0715 1079.9255,-43.7423 1083.2509,-49.902"/>
</g>
<!-- a3&#45;&gt;l4 -->
<g id="edge9" class="edge">
<title>a3:l10&#45;&gt;l4</title>
<path fill="none" stroke="#000000" d="M1032,-42.9331C1044.0916,-42.9331 1068.7886,-51.7179 1091.6208,-61.0537"/>
<polygon fill="#000000" stroke="#000000" points="1090.3369,-64.3104 1100.914,-64.9224 1093.0271,-57.8479 1090.3369,-64.3104"/>
</g>
<!-- a3&#45;&gt;l5 -->
<g id="edge10" class="edge">
<title>a3:l11&#45;&gt;l5</title>
<path fill="none" stroke="#000000" d="M1032,-18.9331C1040.3055,-18.9331 1048.9633,-19.0798 1057.6091,-19.3229"/>
<polygon fill="#000000" stroke="#000000" points="1057.6234,-22.825 1067.7312,-19.6495 1057.8493,-15.8287 1057.6234,-22.825"/>
</g>
<!-- a4&#45;&gt;l7 -->
<g id="edge13" class="edge">
<title>a4:l12&#45;&gt;l7</title>
<path fill="none" stroke="#000000" d="M1569,-96.9331C1573.6121,-96.9331 1590.6489,-108.3244 1606.7589,-119.891"/>
<polygon fill="#000000" stroke="#000000" points="1604.88,-122.8521 1615.0282,-125.8961 1608.9933,-117.188 1604.88,-122.8521"/>
</g>
<!-- a4&#45;&gt;l8 -->
<g id="edge14" class="edge">
<title>a4:l13&#45;&gt;l8</title>
<path fill="none" stroke="#000000" d="M1569,-73.9331C1577.5121,-73.9331 1586.4633,-75.0714 1595.0139,-76.7407"/>
<polygon fill="#000000" stroke="#000000" points="1594.2973,-80.1667 1604.8171,-78.9079 1595.8084,-73.3318 1594.2973,-80.1667"/>
</g>
<!-- a4&#45;&gt;l9 -->
<g id="edge15" class="edge">
<title>a4:l14&#45;&gt;l9</title>
<path fill="none" stroke="#000000" d="M1569,-50.9331C1577.4864,-50.9331 1586.4257,-49.866 1594.9725,-48.301"/>
<polygon fill="#000000" stroke="#000000" points="1595.6933,-51.7261 1604.7748,-46.2692 1594.2726,-44.8718 1595.6933,-51.7261"/>
</g>
<!-- a5&#45;&gt;l6 -->
<g id="edge19" class="edge">
<title>a5&#45;&gt;l6</title>
<path fill="none" stroke="#000000" d="M1774.3157,-44.9155C1747.4707,-32.0324 1708.9308,-15.8055 1673,-8.9331 1608.466,3.4101 1535.227,.9131 1475.5686,-5.2363"/>
<polygon fill="#000000" stroke="#000000" points="1474.9222,-1.7857 1465.3553,-6.3381 1475.673,-8.7453 1474.9222,-1.7857"/>
</g>
</g>
</svg>
